<?xml version="1.0" encoding="utf-8"?>
<!-- Generator: Adobe Illustrator 24.3.0, SVG Export Plug-In . SVG Version: 6.00 Build 0)  -->
<svg version="1.1" id="Layer_1" xmlns="http://www.w3.org/2000/svg" xmlns:xlink="http://www.w3.org/1999/xlink" x="0px" y="0px"
	 viewBox="0 0 280 64" style="enable-background:new 0 0 280 64;" xml:space="preserve" fill="rgb(179, 139, 79)">
<g>
	<polygon class="st0" points="1.77,0.01 46.11,0.01 46.11,12.81 15.63,12.81 15.63,24.54 46.11,24.54 46.11,37.34 15.63,37.34 
		15.63,50.13 46.12,50.13 46.12,62.93 1.77,62.93 	"/>
	<g>
		<path class="st0" d="M80.72,30.36H68.99V44.8c0,1.19,0.06,2.27,0.18,3.24c0.12,0.98,0.38,1.82,0.8,2.53
			c0.41,0.71,1.05,1.26,1.91,1.64c0.86,0.39,2,0.58,3.42,0.58c0.71,0,1.65-0.07,2.8-0.22c1.15-0.15,2.03-0.49,2.62-1.02v11.11
			c-1.48,0.53-3.02,0.89-4.62,1.07C74.5,63.91,72.93,64,71.39,64c-2.25,0-4.33-0.24-6.22-0.71c-1.9-0.47-3.55-1.23-4.98-2.27
			c-1.42-1.04-2.53-2.38-3.33-4.04c-0.8-1.66-1.2-3.67-1.2-6.04V30.36V18.65V0.01h13.33v18.64h11.73V30.36z" />
		<path class="st0" d="M117.15,33.69c-0.65-0.95-1.57-1.73-2.75-2.35c-1.19-0.62-2.46-0.93-3.82-0.93c-3.38,0-6,1.01-7.87,3.02
			c-1.86,2.02-2.8,4.65-2.8,7.91c0,3.26,0.93,5.9,2.8,7.91c1.87,2.02,4.49,3.02,7.87,3.02c1.48,0,2.75-0.33,3.82-0.98
			c1.07-0.65,1.98-1.42,2.75-2.31l8.8,9.24c-2.07,2.13-4.52,3.63-7.33,4.49c-2.82,0.86-5.49,1.29-8.04,1.29
			c-3.32,0-6.44-0.53-9.38-1.6c-2.93-1.07-5.48-2.59-7.64-4.58c-2.17-1.98-3.87-4.37-5.11-7.15c-1.24-2.78-1.87-5.89-1.87-9.33
			c0-3.43,0.62-6.55,1.87-9.33c1.24-2.78,2.94-5.17,5.11-7.15c2.16-1.99,4.71-3.51,7.64-4.58c2.93-1.07,6.06-1.6,9.38-1.6
			c2.55,0,5.23,0.43,8.04,1.29c2.81,0.86,5.26,2.35,7.33,4.49L117.15,33.69z"/>
		<path class="st0" d="M146.3,0.01v25.6h0.18c0.29-0.83,0.8-1.66,1.51-2.49c0.71-0.83,1.57-1.57,2.58-2.22
			c1.01-0.65,2.19-1.18,3.55-1.6c1.36-0.41,2.84-0.62,4.44-0.62c3.38,0,6.1,0.52,8.18,1.56c2.07,1.04,3.69,2.47,4.84,4.31
			c1.15,1.84,1.94,4,2.35,6.49c0.41,2.49,0.62,5.18,0.62,8.09v23.82h-13.33V41.78c0-1.24-0.05-2.53-0.13-3.86
			c-0.09-1.33-0.35-2.56-0.8-3.69c-0.44-1.12-1.12-2.04-2.04-2.75c-0.92-0.71-2.24-1.07-3.95-1.07c-1.72,0-3.11,0.31-4.18,0.93
			c-1.07,0.62-1.88,1.45-2.44,2.49c-0.56,1.04-0.93,2.21-1.11,3.51c-0.18,1.3-0.27,2.67-0.27,4.09v21.51h-13.33V0.01H146.3z"/>
		<path class="st0" d="M212.24,36.45c0.06-2.25-0.68-4.18-2.22-5.78c-1.54-1.6-3.52-2.4-5.95-2.4c-1.48,0-2.78,0.24-3.91,0.71
			c-1.13,0.48-2.09,1.08-2.89,1.82c-0.8,0.74-1.42,1.6-1.87,2.58c-0.44,0.98-0.7,2-0.76,3.07H212.24z M223.52,55.46
			c-2.13,2.73-4.83,4.83-8.09,6.31c-3.26,1.48-6.64,2.22-10.13,2.22c-3.32,0-6.44-0.53-9.38-1.6c-2.93-1.07-5.48-2.59-7.64-4.58
			c-2.16-1.98-3.87-4.37-5.11-7.15c-1.24-2.78-1.87-5.89-1.87-9.33c0-3.43,0.62-6.55,1.87-9.33c1.24-2.78,2.95-5.17,5.11-7.15
			c2.16-1.99,4.71-3.51,7.64-4.58c2.93-1.07,6.06-1.6,9.38-1.6c3.08,0,5.88,0.53,8.4,1.6c2.52,1.07,4.65,2.59,6.4,4.58
			c1.75,1.98,3.1,4.37,4.04,7.15c0.95,2.79,1.42,5.9,1.42,9.33v4.18h-30.92c0.53,2.55,1.69,4.58,3.46,6.09
			c1.78,1.51,3.97,2.27,6.58,2.27c2.19,0,4.04-0.49,5.55-1.47c1.51-0.98,2.83-2.24,3.95-3.78L223.52,55.46z"/>
		<path class="st0" d="M265.96,41.33c0-3.26-0.93-5.89-2.8-7.91c-1.87-2.01-4.49-3.02-7.86-3.02c-3.38,0-6,1.01-7.87,3.02
			c-1.86,2.02-2.8,4.65-2.8,7.91c0,3.26,0.93,5.9,2.8,7.91c1.87,2.02,4.49,3.02,7.87,3.02c3.38,0,6-1.01,7.86-3.02
			C265.03,47.23,265.96,44.59,265.96,41.33 M278.23,62.93h-12.26v-5.69h-0.18c-0.53,0.77-1.23,1.55-2.09,2.35
			c-0.86,0.8-1.86,1.53-3.02,2.18c-1.16,0.65-2.43,1.19-3.82,1.6c-1.39,0.41-2.83,0.62-4.31,0.62c-3.2,0-6.1-0.55-8.71-1.64
			c-2.61-1.1-4.84-2.64-6.71-4.62c-1.87-1.98-3.3-4.34-4.31-7.06c-1.01-2.72-1.51-5.72-1.51-8.98c0-3.02,0.46-5.91,1.38-8.66
			c0.92-2.76,2.22-5.2,3.91-7.33c1.69-2.13,3.75-3.84,6.18-5.11c2.43-1.27,5.18-1.91,8.27-1.91c2.78,0,5.38,0.43,7.78,1.29
			c2.4,0.86,4.37,2.32,5.91,4.4h0.18V0h13.33V62.93z"/>
	</g>
</g>
</svg>
